<svg version="1.1" id="Layer_1" xmlns="http://www.w3.org/2000/svg" xmlns:xlink="http://www.w3.org/1999/xlink" x="0px" y="0px"
	 width="100%" viewBox="0 0 688 648" enable-background="new 0 0 688 648" xml:space="preserve">
<path fill="#FFFEFE" opacity="1.000000" stroke="none" 
	d="
M395.000000,649.000000 
	C263.333344,649.000000 132.166672,649.000000 1.000000,649.000000 
	C1.000000,433.000000 1.000000,217.000000 1.000000,1.000000 
	C230.333328,1.000000 459.666656,1.000000 689.000000,1.000000 
	C689.000000,217.000000 689.000000,433.000000 689.000000,649.000000 
	C591.166687,649.000000 493.333344,649.000000 395.000000,649.000000 
M473.049225,592.509338 
	C485.398102,585.489685 497.956787,578.807434 510.009918,571.312134 
	C516.309448,567.394714 521.803955,562.146851 527.505554,557.315186 
	C532.017212,553.491943 536.290222,549.387207 541.103516,545.012756 
	C549.189392,552.305969 556.799377,559.169922 564.398071,566.023804 
	C594.900757,534.408447 628.125610,496.468658 648.315613,420.291443 
	C665.534058,355.325897 660.436096,290.648865 634.441467,229.430359 
	C606.954041,164.696030 563.233093,112.687759 499.900452,78.382210 
	C449.813721,51.251591 397.181213,36.696232 340.180450,38.613544 
	C275.922180,40.774979 217.923294,62.043034 166.918289,100.183403 
	C107.915810,144.304092 69.512779,203.161758 51.767647,274.956665 
	C35.938976,338.997742 42.023083,401.864716 66.053223,462.543701 
	C81.609695,501.825653 106.089020,536.049194 136.190033,566.333862 
	C143.210953,560.033752 149.926071,554.128723 156.488892,548.059021 
	C159.082748,545.660095 160.962738,545.607117 163.542358,548.262024 
	C168.052521,552.903748 172.594391,557.661011 177.789627,561.457642 
	C186.270920,567.655823 195.208191,573.247009 204.095276,578.869507 
	C221.576019,589.928833 239.863220,599.461487 259.344513,606.488708 
	C290.839417,617.849609 323.327606,623.000854 356.858612,622.282288 
	C397.709595,621.406677 436.094116,611.289246 473.049225,592.509338 
z"/>
<path fill="#BA2C35" opacity="1.000000" stroke="none" 
	d="
M472.751007,592.729797 
	C436.094116,611.289246 397.709595,621.406677 356.858612,622.282288 
	C323.327606,623.000854 290.839417,617.849609 259.344513,606.488708 
	C239.863220,599.461487 221.576019,589.928833 204.095276,578.869507 
	C195.208191,573.247009 186.270920,567.655823 177.789627,561.457642 
	C172.594391,557.661011 168.052521,552.903748 163.542358,548.262024 
	C160.962738,545.607117 159.082748,545.660095 156.488892,548.059021 
	C149.926071,554.128723 143.210953,560.033752 136.190033,566.333862 
	C106.089020,536.049194 81.609695,501.825653 66.053223,462.543701 
	C42.023083,401.864716 35.938976,338.997742 51.767647,274.956665 
	C69.512779,203.161758 107.915810,144.304092 166.918289,100.183403 
	C217.923294,62.043034 275.922180,40.774979 340.180450,38.613544 
	C397.181213,36.696232 449.813721,51.251591 499.900452,78.382210 
	C563.233093,112.687759 606.954041,164.696030 634.441467,229.430359 
	C660.436096,290.648865 665.534058,355.325897 648.315613,420.291443 
	C628.125610,496.468658 594.900757,534.408447 564.398071,566.023804 
	C556.799377,559.169922 549.189392,552.305969 541.103516,545.012756 
	C536.290222,549.387207 532.017212,553.491943 527.505554,557.315186 
	C521.803955,562.146851 516.309448,567.394714 510.009918,571.312134 
	C497.956787,578.807434 485.398102,585.489685 472.751007,592.729797 
M119.705078,478.677673 
	C129.586868,496.169556 140.693588,512.740906 155.293228,526.755737 
	C164.048477,535.160278 172.099640,544.396484 181.455978,552.050232 
	C191.595367,560.344543 201.368103,569.093750 214.079697,574.231201 
	C228.964752,580.247131 242.493103,589.649231 257.418579,595.530334 
	C299.284973,612.027039 342.809906,616.918335 387.396881,610.429260 
	C422.921783,605.258972 455.938934,592.989258 486.523926,574.127808 
	C490.099792,571.922668 494.820831,571.377258 498.046661,568.837524 
	C508.999908,560.214050 519.879700,551.428894 530.101685,541.964661 
	C539.635437,533.137573 548.823914,523.814758 557.223206,513.911804 
	C572.652832,495.719910 584.710083,475.250366 594.177002,453.399750 
	C599.447937,441.233917 604.893860,428.844666 607.733398,415.997498 
	C611.633484,398.352142 613.721863,380.235992 615.535034,362.215759 
	C618.469788,333.047852 614.111694,304.207275 607.237183,276.102600 
	C603.056152,259.009583 594.576172,242.951492 587.787659,226.527573 
	C586.496277,223.403259 583.911011,220.839203 582.226807,217.845642 
	C579.958008,213.813141 578.496704,209.237564 575.788818,205.557236 
	C567.138733,193.800568 558.495728,181.989304 549.036499,170.892563 
	C541.179382,161.675278 532.764099,152.735977 523.520569,144.950439 
	C512.888245,135.995255 501.584473,127.581711 489.641876,120.502693 
	C474.813263,111.713005 459.473236,103.440727 443.529022,96.981514 
	C429.291168,91.213570 414.165680,86.463455 399.007599,84.435242 
	C379.798218,81.864983 360.160248,81.947731 340.706635,81.938614 
	C326.774994,81.932083 312.539276,82.185081 298.988861,84.983673 
	C282.817383,88.323608 267.073273,94.051865 251.431808,99.562286 
	C229.115875,107.424080 209.751724,120.827415 190.528732,134.205521 
	C183.223068,139.289841 176.623077,145.563980 170.376328,151.955444 
	C159.234940,163.354904 147.748138,174.589874 138.012497,187.140015 
	C128.832672,198.973694 120.549660,211.841583 113.998627,225.290359 
	C105.802887,242.115555 98.752472,259.677734 93.169373,277.535095 
	C89.289169,289.945770 88.236023,303.335327 86.748016,316.382050 
	C80.999367,366.785278 88.191872,415.195312 110.172775,461.135590 
	C112.933212,466.904877 116.346489,472.361847 119.705078,478.677673 
z"/>
<path fill="#FEFEFE" opacity="1.000000" stroke="none" 
	d="
M119.581184,478.320587 
	C116.346489,472.361847 112.933212,466.904877 110.172775,461.135590 
	C88.191872,415.195312 80.999367,366.785278 86.748016,316.382050 
	C88.236023,303.335327 89.289169,289.945770 93.169373,277.535095 
	C98.752472,259.677734 105.802887,242.115555 113.998627,225.290359 
	C120.549660,211.841583 128.832672,198.973694 138.012497,187.140015 
	C147.748138,174.589874 159.234940,163.354904 170.376328,151.955444 
	C176.623077,145.563980 183.223068,139.289841 190.528732,134.205521 
	C209.751724,120.827415 229.115875,107.424080 251.431808,99.562286 
	C267.073273,94.051865 282.817383,88.323608 298.988861,84.983673 
	C312.539276,82.185081 326.774994,81.932083 340.706635,81.938614 
	C360.160248,81.947731 379.798218,81.864983 399.007599,84.435242 
	C414.165680,86.463455 429.291168,91.213570 443.529022,96.981514 
	C459.473236,103.440727 474.813263,111.713005 489.641876,120.502693 
	C501.584473,127.581711 512.888245,135.995255 523.520569,144.950439 
	C532.764099,152.735977 541.179382,161.675278 549.036499,170.892563 
	C558.495728,181.989304 567.138733,193.800568 575.788818,205.557236 
	C578.496704,209.237564 579.958008,213.813141 582.226807,217.845642 
	C583.911011,220.839203 586.496277,223.403259 587.787659,226.527573 
	C594.576172,242.951492 603.056152,259.009583 607.237183,276.102600 
	C614.111694,304.207275 618.469788,333.047852 615.535034,362.215759 
	C613.721863,380.235992 611.633484,398.352142 607.733398,415.997498 
	C604.893860,428.844666 599.447937,441.233917 594.177002,453.399750 
	C584.710083,475.250366 572.652832,495.719910 557.223206,513.911804 
	C548.823914,523.814758 539.635437,533.137573 530.101685,541.964661 
	C519.879700,551.428894 508.999908,560.214050 498.046661,568.837524 
	C494.820831,571.377258 490.099792,571.922668 486.523926,574.127808 
	C455.938934,592.989258 422.921783,605.258972 387.396881,610.429260 
	C342.809906,616.918335 299.284973,612.027039 257.418579,595.530334 
	C242.493103,589.649231 228.964752,580.247131 214.079697,574.231201 
	C201.368103,569.093750 191.595367,560.344543 181.455978,552.050232 
	C172.099640,544.396484 164.048477,535.160278 155.293228,526.755737 
	C140.693588,512.740906 129.586868,496.169556 119.581184,478.320587 
M363.368835,212.662079 
	C365.110382,214.666733 366.621033,218.122070 368.630768,218.441986 
	C382.269775,220.612915 390.908936,217.372238 395.639526,204.281799 
	C399.215118,194.387497 393.823425,181.494034 384.345947,178.002625 
	C380.773926,176.686737 376.484131,177.469543 372.602997,176.813660 
	C361.810760,174.989883 351.911163,187.955338 352.177307,196.890289 
	C352.425018,205.207748 352.228851,213.538422 352.228241,221.863266 
	C352.228027,225.134094 352.228210,228.404907 352.228210,231.675934 
	C358.018188,231.536133 360.870819,228.988983 361.139648,223.991013 
	C361.353882,220.007812 361.304504,216.010422 361.949310,212.017014 
	C362.334076,212.009018 362.718842,212.001007 363.368835,212.662079 
M443.354614,398.701416 
	C380.540192,398.701385 317.725800,398.697693 254.911392,398.713959 
	C252.249680,398.714630 249.562881,398.701385 246.930435,399.033142 
	C230.869049,401.057404 221.585739,412.343506 218.761261,426.827148 
	C215.154129,445.324188 229.899902,466.510956 253.272964,466.316833 
	C318.082336,465.778595 382.899170,466.098511 447.712982,466.158264 
	C460.133423,466.169708 469.577972,461.475983 476.746338,450.981720 
	C490.865540,430.311615 476.969727,403.497162 456.735687,399.545288 
	C452.693604,398.755859 448.457947,398.957367 443.354614,398.701416 
M352.940186,330.435425 
	C347.311432,314.158051 341.731812,297.863190 335.947540,281.641266 
	C335.545654,280.514069 333.656464,279.270477 332.401581,279.206573 
	C327.094482,278.936310 321.765656,279.092041 316.443085,279.092041 
	C308.030212,303.114044 299.677948,326.962982 291.205872,351.154083 
	C296.940277,351.154083 302.215820,351.154083 307.868408,351.154083 
	C308.283905,349.684509 308.862671,348.137268 309.151245,346.537659 
	C311.448669,333.801727 311.431763,333.798676 324.045685,333.798676 
	C337.913025,333.798676 337.910767,333.799377 342.052826,347.226105 
	C342.297150,348.017975 342.488953,348.878204 342.948059,349.537506 
	C343.440399,350.244476 344.205688,351.247253 344.876495,351.266602 
	C349.909790,351.411713 354.949158,351.345612 360.378357,351.345612 
	C357.761566,344.010986 355.471008,337.590820 352.940186,330.435425 
M291.063293,193.797791 
	C291.063293,202.082825 291.063293,210.367844 291.063293,218.636398 
	C296.831055,218.688110 299.860779,216.018417 300.097778,210.639313 
	C300.339355,205.156128 300.148071,199.655212 300.233002,194.163391 
	C300.318573,188.628326 303.474243,184.983948 307.999359,185.042145 
	C312.020111,185.093842 315.096039,188.931107 315.175537,194.200668 
	C315.255890,199.526459 315.069031,204.858368 315.235382,210.180222 
	C315.415863,215.955536 318.555939,218.872787 324.076355,218.341385 
	C324.076355,210.415787 324.014923,202.446014 324.096924,194.477692 
	C324.156433,188.694946 327.342651,185.062531 332.140106,185.031311 
	C336.431366,185.003387 338.939972,188.299988 339.011871,194.215057 
	C339.076599,199.541183 338.853180,204.877838 339.111206,210.192657 
	C339.390961,215.955215 342.586273,218.826035 347.824829,218.463150 
	C347.824829,208.717148 348.449951,198.909760 347.627594,189.225296 
	C346.966278,181.437164 340.495178,176.598557 332.657104,176.981918 
	C328.208954,177.199493 323.815582,178.536942 318.256836,179.585129 
	C305.573853,171.474014 291.222412,178.934357 291.063293,193.797791 
M460.073303,207.452866 
	C458.388153,211.194580 456.703003,214.936310 454.801147,219.159210 
	C460.380676,219.347153 465.928986,218.746490 467.228027,213.864899 
	C469.893829,203.847198 476.449188,202.819351 484.829285,203.907532 
	C486.630615,204.141434 488.527802,204.186523 490.312988,203.898407 
	C497.293060,202.771790 501.707886,204.928970 503.991180,212.196411 
	C505.754364,217.808411 509.677704,219.254913 516.055908,218.295502 
	C515.666199,217.180466 515.370667,216.074371 514.906067,215.044556 
	C507.828247,199.357559 500.710541,183.688538 493.647125,167.995071 
	C492.052521,164.452194 489.956268,161.455536 485.666260,161.526550 
	C481.376801,161.597549 479.452789,164.718918 477.872772,168.245239 
	C472.106567,181.114410 466.244049,193.940430 460.073303,207.452866 
M206.835541,162.142838 
	C196.879807,164.865021 182.864944,178.207504 184.171295,190.443161 
	C185.527161,203.142639 195.749496,215.755920 208.275558,218.630493 
	C223.670258,222.163391 238.373688,213.890320 242.733612,204.624008 
	C238.062836,201.364487 235.584183,201.592346 229.855713,205.807770 
	C216.925262,215.322998 199.597885,210.091751 194.432800,195.113358 
	C191.775177,187.406464 193.688599,181.107498 200.199081,176.130768 
	C211.173691,167.741516 219.641754,167.652069 231.048416,175.292267 
	C234.706085,177.742188 238.961075,179.129440 243.637207,177.586426 
	C238.802979,165.385178 222.608459,158.495941 206.835541,162.142838 
M391.269592,296.039612 
	C390.896362,290.993134 388.799988,290.230133 380.705383,292.477570 
	C380.705383,297.315979 380.556610,302.288849 380.758636,307.247406 
	C380.889404,310.457336 379.858734,311.739655 376.515839,311.565857 
	C371.910065,311.326447 367.282501,311.505859 362.486023,311.505859 
	C362.486023,315.352203 362.486023,318.604950 362.486023,322.570740 
	C368.575531,322.570740 374.462311,322.570740 380.866516,322.570740 
	C380.866516,328.685242 380.866516,334.099182 380.866516,339.600372 
	C384.532318,339.600372 387.634521,339.600372 391.484528,339.600372 
	C391.484528,333.815308 391.484528,328.279816 391.484528,322.307281 
	C398.150055,322.307281 404.074219,322.307281 410.017944,322.307281 
	C410.017944,318.457336 410.017944,315.096558 410.017944,311.506683 
	C405.278625,311.506683 400.927887,311.189606 396.644928,311.592743 
	C392.038879,312.026306 390.768646,310.173035 391.210144,305.919647 
	C391.517914,302.954712 391.269257,299.932007 391.269592,296.039612 
M289.318726,195.924042 
	C287.783905,187.431351 284.055908,180.338821 275.353546,177.623764 
	C271.688934,176.480423 267.485107,176.916412 263.525085,176.897003 
	C251.816330,176.839584 241.753510,188.929016 243.774017,200.497635 
	C245.875504,212.529892 255.780273,219.756790 269.196960,219.047211 
	C280.866821,218.430038 288.633453,209.849091 289.318726,195.924042 
M408.337891,212.582062 
	C409.713257,216.417343 411.663330,219.463867 417.096558,218.637634 
	C417.096558,202.642044 417.096558,186.739197 417.096558,170.267517 
	C423.117706,170.267517 428.571564,170.356369 434.021179,170.242538 
	C439.485229,170.128448 442.101288,167.523392 442.466187,161.937134 
	C422.490814,161.937134 402.533630,161.937134 382.487213,161.937134 
	C383.678650,168.312561 385.720276,170.162521 391.507751,170.251877 
	C396.777039,170.333237 402.048553,170.269119 408.136047,170.269119 
	C408.136047,184.530014 408.136047,198.139267 408.337891,212.582062 
M346.962738,527.774353 
	C345.305450,526.792053 343.651245,525.804565 341.990082,524.828918 
	C340.353210,523.867554 338.709351,522.918091 336.412048,521.581421 
	C336.392609,530.754761 341.390015,534.345764 350.462433,533.266541 
	C356.522705,532.545593 360.895020,529.082031 361.318939,524.666626 
	C361.690796,520.793213 358.288727,517.458679 352.163910,515.614197 
	C349.618866,514.847778 346.973785,514.235962 344.634247,513.043640 
	C343.556091,512.494202 342.453491,510.665894 342.546783,509.513397 
	C342.642334,508.332642 344.212036,506.306335 345.091156,506.330048 
	C348.032135,506.409393 351.015106,507.025909 353.861359,507.852234 
	C356.060211,508.490570 358.078003,509.752625 360.614471,510.943024 
	C361.123627,502.413605 352.403992,499.310760 346.409576,500.131592 
	C340.432861,500.950012 337.007568,503.953583 336.517548,508.898743 
	C335.944519,514.681519 338.098297,517.383972 344.723755,519.434204 
	C348.140289,520.491394 351.503082,521.722229 354.874847,522.869446 
	C353.860962,527.537354 350.765717,527.635986 346.962738,527.774353 
M255.370728,506.539764 
	C253.223633,504.695740 251.258331,501.604095 248.892776,501.259399 
	C243.446594,500.465851 237.805832,501.007751 232.272812,501.007751 
	C232.272812,511.737305 232.272812,522.118164 232.272812,532.530518 
	C234.327744,532.530518 236.069702,532.530518 238.104355,532.530518 
	C238.204865,530.776733 238.282776,529.316467 238.373779,527.856995 
	C238.472824,526.268555 238.584030,524.680847 238.718597,522.663330 
	C241.413330,522.663330 243.707138,522.670532 246.000885,522.661926 
	C253.331573,522.634338 255.784134,520.210388 255.873962,512.795227 
	C255.895996,510.977692 255.697510,509.157471 255.370728,506.539764 
M453.020569,189.500031 
	C453.020294,183.022049 453.097229,176.542831 452.994720,170.066467 
	C452.916107,165.099869 450.492493,162.699066 445.101440,162.259720 
	C445.101440,177.205826 445.098755,192.122665 445.104950,207.039505 
	C445.105713,208.865906 445.007324,210.708786 445.210297,212.515335 
	C445.689301,216.778351 448.004181,219.055389 453.020569,218.867218 
	C453.020569,209.337463 453.020569,199.918732 453.020569,189.500031 
M379.047699,508.993774 
	C373.497559,508.378174 368.714264,509.642212 365.961578,514.956177 
	C363.560028,519.592285 363.662811,524.293091 366.820129,528.597351 
	C369.890808,532.783508 374.229523,533.901855 379.189148,533.159607 
	C383.359375,532.535461 386.557739,530.756104 387.331848,525.625671 
	C384.986481,525.702820 382.733856,526.087585 380.875427,527.157166 
	C376.433655,529.713623 372.448029,528.165649 371.246735,522.608398 
	C376.921356,522.608398 382.481415,522.608398 387.971832,522.608398 
	C388.624420,515.384583 386.321564,511.749664 379.047699,508.993774 
M442.977631,513.663940 
	C438.540192,508.637909 432.789551,507.338440 427.390594,510.141724 
	C422.517792,512.671875 419.951660,518.588806 421.308105,524.166626 
	C422.642120,529.652283 427.527649,533.398438 433.406769,533.443665 
	C439.288940,533.488953 442.747253,531.123291 444.408051,524.656860 
	C441.542877,525.689941 439.328705,526.142944 437.481903,527.223694 
	C433.196228,529.731628 428.838928,527.934875 428.093170,522.552124 
	C433.715179,522.552124 439.263794,522.552124 445.665436,522.552124 
	C444.754425,519.295227 444.059753,516.811829 442.977631,513.663940 
M274.927765,509.168579 
	C274.485260,513.450623 273.684814,517.731506 273.671600,522.014893 
	C273.639862,532.301453 279.062378,535.475159 287.058197,531.251831 
	C290.144897,531.975464 292.410156,532.506531 294.990295,533.111450 
	C294.990295,524.606140 294.990295,517.071899 294.990295,509.424927 
	C292.876251,509.424927 291.146515,509.424927 288.883606,509.424927 
	C288.883606,513.694275 288.936615,517.643066 288.866852,521.589722 
	C288.810852,524.760559 287.526520,527.334351 284.046722,527.368896 
	C280.469055,527.404480 280.040466,524.505981 279.981720,521.706421 
	C279.922577,518.885925 279.788696,516.049866 280.005310,513.245178 
	C280.255981,509.999420 279.115387,508.529816 274.927765,509.168579 
M466.312439,516.540771 
	C471.145660,516.158020 469.403748,513.713989 467.639648,511.727295 
	C464.031860,507.664459 454.014526,507.598511 450.884003,512.013672 
	C449.498840,513.967285 449.185120,517.396362 449.810242,519.782166 
	C450.166504,521.141785 453.339233,521.904846 455.354065,522.629883 
	C456.387573,523.001831 457.747498,522.432190 458.810272,522.765320 
	C460.427856,523.272339 461.962616,524.119080 463.403809,525.026123 
	C463.603943,525.152100 463.247559,526.968994 462.844482,527.105713 
	C461.195160,527.665100 459.434204,528.075073 457.701202,528.130859 
	C456.856659,528.158081 455.788452,527.466187 455.157654,526.787354 
	C452.859772,524.314514 450.673035,524.937683 448.295166,526.495483 
	C451.911804,533.932190 462.722687,535.806824 468.154968,530.177917 
	C471.504913,526.706787 470.940918,523.095520 466.567871,521.423401 
	C463.787872,520.360474 460.761169,519.948669 457.964874,518.919373 
	C456.920471,518.534973 456.216156,517.226746 455.356812,516.339661 
	C456.418762,515.452454 457.662262,513.674194 458.508392,513.846558 
	C460.953186,514.344604 463.237976,515.627991 466.312439,516.540771 
M319.469971,513.905334 
	C315.693359,508.633636 308.647461,506.823334 303.907288,510.770416 
	C301.949493,512.400696 300.915283,516.106018 300.918518,518.865967 
	C300.922089,521.899902 303.789429,522.922668 306.843964,522.739502 
	C308.480865,522.641357 310.259399,522.643250 311.751465,523.198303 
	C312.726471,523.560974 313.711731,524.926636 313.893066,525.980530 
	C313.991425,526.552063 312.444794,527.973755 311.589294,528.017639 
	C310.070435,528.095337 308.496887,527.472534 306.975281,527.040405 
	C304.774872,526.415527 302.600403,525.699585 299.422516,524.715027 
	C300.966339,530.460144 303.700867,532.428345 307.658569,533.038940 
	C312.003113,533.709290 316.033020,533.160278 319.047516,529.645203 
	C321.965454,526.242737 321.299530,523.251282 317.225220,521.538452 
	C314.790039,520.514709 312.047821,520.184509 309.682953,519.045654 
	C308.498749,518.475342 307.850372,516.792358 306.959625,515.612671 
	C308.684814,515.128662 310.389008,514.483704 312.147430,514.254456 
	C312.706085,514.181641 313.445862,515.699097 314.039215,515.653931 
	C315.936127,515.509583 317.803223,514.973511 319.469971,513.905334 
M261.100006,505.818115 
	C261.100006,514.730103 261.100006,523.642090 261.100006,532.655151 
	C263.555389,532.655151 265.183044,532.655151 266.982147,532.655151 
	C267.157776,531.537903 267.435730,530.580688 267.439056,529.622620 
	C267.471710,520.169800 267.458771,510.716736 267.458771,501.037262 
	C263.902008,500.624542 260.446655,499.427246 261.100006,505.818115 
M405.851440,514.448120 
	C406.512360,512.815186 407.173279,511.182312 407.676453,509.939209 
	C402.218689,509.939209 397.709656,509.939209 393.027557,509.939209 
	C393.027557,517.215027 393.027557,524.892395 393.027557,532.886230 
	C395.193085,532.760010 396.917938,532.659485 398.955139,532.540710 
	C398.955139,528.367188 399.038910,524.723206 398.933350,521.084717 
	C398.809174,516.805237 400.562897,514.420776 405.851440,514.448120 
M411.960632,516.600220 
	C411.960632,521.847412 411.960632,527.094604 411.960632,532.401245 
	C414.293762,532.401245 415.987366,532.401245 417.590149,532.401245 
	C417.590149,524.472412 417.590149,516.939880 417.590149,509.105011 
	C415.603790,509.226074 414.021088,509.322510 411.960663,509.448090 
	C411.960663,511.733795 411.960663,513.684082 411.960632,516.600220 
M412.765869,504.828979 
	C414.466553,504.506622 416.309265,504.453857 417.773438,503.682526 
	C418.166107,503.475708 417.811798,500.746582 417.037537,499.798157 
	C416.475983,499.110291 413.806519,498.971344 413.555267,499.418396 
	C412.752869,500.846222 412.639832,502.661438 412.765869,504.828979 
z"/>
<path fill="#BE3740" opacity="1.000000" stroke="none" 
	d="
M443.833069,398.701691 
	C448.457947,398.957367 452.693604,398.755859 456.735687,399.545288 
	C476.969727,403.497162 490.865540,430.311615 476.746338,450.981720 
	C469.577972,461.475983 460.133423,466.169708 447.712982,466.158264 
	C382.899170,466.098511 318.082336,465.778595 253.272964,466.316833 
	C229.899902,466.510956 215.154129,445.324188 218.761261,426.827148 
	C221.585739,412.343506 230.869049,401.057404 246.930435,399.033142 
	C249.562881,398.701385 252.249680,398.714630 254.911392,398.713959 
	C317.725800,398.697693 380.540192,398.701385 443.833069,398.701691 
M243.110123,406.174469 
	C233.230042,409.385406 226.941772,416.508026 225.064575,426.231567 
	C221.755295,443.372986 232.675873,460.166412 253.151566,460.144592 
	C317.762238,460.075684 382.373077,460.125702 446.983856,460.114777 
	C461.671631,460.112305 470.683197,453.651886 475.194824,439.705841 
	C478.534790,429.381348 475.621857,420.363342 468.420624,412.758972 
	C462.870392,406.897980 455.632477,404.750305 447.612091,404.755035 
	C383.334351,404.792908 319.056610,404.756958 254.778961,404.826355 
	C251.153931,404.830292 247.529678,405.562103 243.110123,406.174469 
z"/>
<path fill="#232A31" opacity="1.000000" stroke="none" 
	d="
M353.060303,330.803040 
	C355.471008,337.590820 357.761566,344.010986 360.378357,351.345612 
	C354.949158,351.345612 349.909790,351.411713 344.876495,351.266602 
	C344.205688,351.247253 343.440399,350.244476 342.948059,349.537506 
	C342.488953,348.878204 342.297150,348.017975 342.052826,347.226105 
	C337.910767,333.799377 337.913025,333.798676 324.045685,333.798676 
	C311.431763,333.798676 311.448669,333.801727 309.151245,346.537659 
	C308.862671,348.137268 308.283905,349.684509 307.868408,351.154083 
	C302.215820,351.154083 296.940277,351.154083 291.205872,351.154083 
	C299.677948,326.962982 308.030212,303.114044 316.443085,279.092041 
	C321.765656,279.092041 327.094482,278.936310 332.401581,279.206573 
	C333.656464,279.270477 335.545654,280.514069 335.947540,281.641266 
	C341.731812,297.863190 347.311432,314.158051 353.060303,330.803040 
M317.044067,319.424500 
	C316.877258,320.481934 316.710480,321.539398 316.521515,322.737366 
	C322.828979,322.737366 328.773438,322.737366 335.393890,322.737366 
	C332.168030,312.367065 329.048553,302.338654 325.657471,291.437103 
	C322.621735,301.240265 319.926361,309.944489 317.044067,319.424500 
z"/>
<path fill="#BC333C" opacity="1.000000" stroke="none" 
	d="
M291.064026,193.339355 
	C291.222412,178.934357 305.573853,171.474014 318.256836,179.585129 
	C323.815582,178.536942 328.208954,177.199493 332.657104,176.981918 
	C340.495178,176.598557 346.966278,181.437164 347.627594,189.225296 
	C348.449951,198.909760 347.824829,208.717148 347.824829,218.463150 
	C342.586273,218.826035 339.390961,215.955215 339.111206,210.192657 
	C338.853180,204.877838 339.076599,199.541183 339.011871,194.215057 
	C338.939972,188.299988 336.431366,185.003387 332.140106,185.031311 
	C327.342651,185.062531 324.156433,188.694946 324.096924,194.477692 
	C324.014923,202.446014 324.076355,210.415787 324.076355,218.341385 
	C318.555939,218.872787 315.415863,215.955536 315.235382,210.180222 
	C315.069031,204.858368 315.255890,199.526459 315.175537,194.200668 
	C315.096039,188.931107 312.020111,185.093842 307.999359,185.042145 
	C303.474243,184.983948 300.318573,188.628326 300.233002,194.163391 
	C300.148071,199.655212 300.339355,205.156128 300.097778,210.639313 
	C299.860779,216.018417 296.831055,218.688110 291.063293,218.636398 
	C291.063293,210.367844 291.063293,202.082825 291.064026,193.339355 
z"/>
<path fill="#BC343D" opacity="1.000000" stroke="none" 
	d="
M460.245544,207.117783 
	C466.244049,193.940430 472.106567,181.114410 477.872772,168.245239 
	C479.452789,164.718918 481.376801,161.597549 485.666260,161.526550 
	C489.956268,161.455536 492.052521,164.452194 493.647125,167.995071 
	C500.710541,183.688538 507.828247,199.357559 514.906067,215.044556 
	C515.370667,216.074371 515.666199,217.180466 516.055908,218.295502 
	C509.677704,219.254913 505.754364,217.808411 503.991180,212.196411 
	C501.707886,204.928970 497.293060,202.771790 490.312988,203.898407 
	C488.527802,204.186523 486.630615,204.141434 484.829285,203.907532 
	C476.449188,202.819351 469.893829,203.847198 467.228027,213.864899 
	C465.928986,218.746490 460.380676,219.347153 454.801147,219.159210 
	C456.703003,214.936310 458.388153,211.194580 460.245544,207.117783 
M496.622467,194.068283 
	C493.466461,187.278854 490.310425,180.489426 487.154419,173.700012 
	C486.384033,173.717438 485.613647,173.734848 484.843292,173.752274 
	C481.599884,180.610565 478.356506,187.468842 474.865631,194.850403 
	C482.807404,194.850403 489.600250,194.850403 496.622467,194.068283 
z"/>
<path fill="#BC343D" opacity="1.000000" stroke="none" 
	d="
M207.247925,162.080231 
	C222.608459,158.495941 238.802979,165.385178 243.637207,177.586426 
	C238.961075,179.129440 234.706085,177.742188 231.048416,175.292267 
	C219.641754,167.652069 211.173691,167.741516 200.199081,176.130768 
	C193.688599,181.107498 191.775177,187.406464 194.432800,195.113358 
	C199.597885,210.091751 216.925262,215.322998 229.855713,205.807770 
	C235.584183,201.592346 238.062836,201.364487 242.733612,204.624008 
	C238.373688,213.890320 223.670258,222.163391 208.275558,218.630493 
	C195.749496,215.755920 185.527161,203.142639 184.171295,190.443161 
	C182.864944,178.207504 196.879807,164.865021 207.247925,162.080231 
z"/>
<path fill="#BD343E" opacity="1.000000" stroke="none" 
	d="
M361.372162,212.019333 
	C361.304504,216.010422 361.353882,220.007812 361.139648,223.991013 
	C360.870819,228.988983 358.018188,231.536133 352.228210,231.675934 
	C352.228210,228.404907 352.228027,225.134094 352.228241,221.863266 
	C352.228851,213.538422 352.425018,205.207748 352.177307,196.890289 
	C351.911163,187.955338 361.810760,174.989883 372.602997,176.813660 
	C376.484131,177.469543 380.773926,176.686737 384.345947,178.002625 
	C393.823425,181.494034 399.215118,194.387497 395.639526,204.281799 
	C390.908936,217.372238 382.269775,220.612915 368.630768,218.441986 
	C366.621033,218.122070 365.110382,214.666733 363.306702,211.920670 
	C363.442261,209.969818 363.639923,208.760361 363.868835,207.359680 
	C365.740631,208.138641 367.063385,208.789108 368.449249,209.249496 
	C377.006622,212.092316 386.154968,208.252609 388.234283,200.950729 
	C389.598694,196.159515 388.237518,191.944687 384.712433,188.716064 
	C379.980774,184.382309 374.310699,183.895096 368.432251,186.077515 
	C363.388275,187.950134 361.693481,192.402740 361.287476,197.115356 
	C360.862854,202.044342 361.307495,207.048203 361.372162,212.019333 
z"/>
<path fill="#232930" opacity="1.000000" stroke="none" 
	d="
M391.269348,296.487366 
	C391.269257,299.932007 391.517914,302.954712 391.210144,305.919647 
	C390.768646,310.173035 392.038879,312.026306 396.644928,311.592743 
	C400.927887,311.189606 405.278625,311.506683 410.017944,311.506683 
	C410.017944,315.096558 410.017944,318.457336 410.017944,322.307281 
	C404.074219,322.307281 398.150055,322.307281 391.484528,322.307281 
	C391.484528,328.279816 391.484528,333.815308 391.484528,339.600372 
	C387.634521,339.600372 384.532318,339.600372 380.866516,339.600372 
	C380.866516,334.099182 380.866516,328.685242 380.866516,322.570740 
	C374.462311,322.570740 368.575531,322.570740 362.486023,322.570740 
	C362.486023,318.604950 362.486023,315.352203 362.486023,311.505859 
	C367.282501,311.505859 371.910065,311.326447 376.515839,311.565857 
	C379.858734,311.739655 380.889404,310.457336 380.758636,307.247406 
	C380.556610,302.288849 380.705383,297.315979 380.705383,292.477570 
	C388.799988,290.230133 390.896362,290.993134 391.269348,296.487366 
z"/>
<path fill="#BC343D" opacity="1.000000" stroke="none" 
	d="
M289.359680,196.324615 
	C288.633453,209.849091 280.866821,218.430038 269.196960,219.047211 
	C255.780273,219.756790 245.875504,212.529892 243.774017,200.497635 
	C241.753510,188.929016 251.816330,176.839584 263.525085,176.897003 
	C267.485107,176.916412 271.688934,176.480423 275.353546,177.623764 
	C284.055908,180.338821 287.783905,187.431351 289.359680,196.324615 
M259.905792,208.952499 
	C263.335510,209.249176 266.833801,210.118637 270.179993,209.717911 
	C276.298706,208.985168 280.835358,203.966309 281.184174,198.537430 
	C281.592651,192.180298 277.623260,187.358154 270.488098,185.543503 
	C262.946045,183.625412 256.768463,186.304581 253.909760,192.733475 
	C251.310410,198.579086 253.350342,204.761032 259.905792,208.952499 
z"/>
<path fill="#BB303A" opacity="1.000000" stroke="none" 
	d="
M408.236969,212.165283 
	C408.136047,198.139267 408.136047,184.530014 408.136047,170.269119 
	C402.048553,170.269119 396.777039,170.333237 391.507751,170.251877 
	C385.720276,170.162521 383.678650,168.312561 382.487213,161.937134 
	C402.533630,161.937134 422.490814,161.937134 442.466187,161.937134 
	C442.101288,167.523392 439.485229,170.128448 434.021179,170.242538 
	C428.571564,170.356369 423.117706,170.267517 417.096558,170.267517 
	C417.096558,186.739197 417.096558,202.642044 417.096558,218.637634 
	C411.663330,219.463867 409.713257,216.417343 408.236969,212.165283 
z"/>
<path fill="#FCF6F7" opacity="1.000000" stroke="none" 
	d="
M361.660736,212.018173 
	C361.307495,207.048203 360.862854,202.044342 361.287476,197.115356 
	C361.693481,192.402740 363.388275,187.950134 368.432251,186.077515 
	C374.310699,183.895096 379.980774,184.382309 384.712433,188.716064 
	C388.237518,191.944687 389.598694,196.159515 388.234283,200.950729 
	C386.154968,208.252609 377.006622,212.092316 368.449249,209.249496 
	C367.063385,208.789108 365.740631,208.138641 363.868835,207.359680 
	C363.639923,208.760361 363.442261,209.969818 363.174103,211.586136 
	C362.718842,212.001007 362.334076,212.009018 361.660736,212.018173 
z"/>
<path fill="#5F666A" opacity="1.000000" stroke="none" 
	d="
M347.354980,527.817017 
	C350.765717,527.635986 353.860962,527.537354 354.874847,522.869446 
	C351.503082,521.722229 348.140289,520.491394 344.723755,519.434204 
	C338.098297,517.383972 335.944519,514.681519 336.517548,508.898743 
	C337.007568,503.953583 340.432861,500.950012 346.409576,500.131592 
	C352.403992,499.310760 361.123627,502.413605 360.614471,510.943024 
	C358.078003,509.752625 356.060211,508.490570 353.861359,507.852234 
	C351.015106,507.025909 348.032135,506.409393 345.091156,506.330048 
	C344.212036,506.306335 342.642334,508.332642 342.546783,509.513397 
	C342.453491,510.665894 343.556091,512.494202 344.634247,513.043640 
	C346.973785,514.235962 349.618866,514.847778 352.163910,515.614197 
	C358.288727,517.458679 361.690796,520.793213 361.318939,524.666626 
	C360.895020,529.082031 356.522705,532.545593 350.462433,533.266541 
	C341.390015,534.345764 336.392609,530.754761 336.412048,521.581421 
	C338.709351,522.918091 340.353210,523.867554 341.990082,524.828918 
	C343.651245,525.804565 345.305450,526.792053 347.354980,527.817017 
z"/>
<path fill="#5E6469" opacity="1.000000" stroke="none" 
	d="
M255.485565,506.939117 
	C255.697510,509.157471 255.895996,510.977692 255.873962,512.795227 
	C255.784134,520.210388 253.331573,522.634338 246.000885,522.661926 
	C243.707138,522.670532 241.413330,522.663330 238.718597,522.663330 
	C238.584030,524.680847 238.472824,526.268555 238.373779,527.856995 
	C238.282776,529.316467 238.204865,530.776733 238.104355,532.530518 
	C236.069702,532.530518 234.327744,532.530518 232.272812,532.530518 
	C232.272812,522.118164 232.272812,511.737305 232.272812,501.007751 
	C237.805832,501.007751 243.446594,500.465851 248.892776,501.259399 
	C251.258331,501.604095 253.223633,504.695740 255.485565,506.939117 
M244.138672,505.861176 
	C242.354828,505.861176 240.570984,505.861176 238.469193,505.861176 
	C238.469193,510.164185 238.469193,513.893494 238.469193,517.574890 
	C246.070908,518.990051 249.498230,517.950989 250.384506,513.697144 
	C251.269958,509.447266 249.631287,506.547852 244.138672,505.861176 
z"/>
<path fill="#BC323B" opacity="1.000000" stroke="none" 
	d="
M453.020569,190.000015 
	C453.020569,199.918732 453.020569,209.337463 453.020569,218.867218 
	C448.004181,219.055389 445.689301,216.778351 445.210297,212.515335 
	C445.007324,210.708786 445.105713,208.865906 445.104950,207.039505 
	C445.098755,192.122665 445.101440,177.205826 445.101440,162.259720 
	C450.492493,162.699066 452.916107,165.099869 452.994720,170.066467 
	C453.097229,176.542831 453.020294,183.022049 453.020569,190.000015 
z"/>
<path fill="#62696D" opacity="1.000000" stroke="none" 
	d="
M379.454132,509.072144 
	C386.321564,511.749664 388.624420,515.384583 387.971832,522.608398 
	C382.481415,522.608398 376.921356,522.608398 371.246735,522.608398 
	C372.448029,528.165649 376.433655,529.713623 380.875427,527.157166 
	C382.733856,526.087585 384.986481,525.702820 387.331848,525.625671 
	C386.557739,530.756104 383.359375,532.535461 379.189148,533.159607 
	C374.229523,533.901855 369.890808,532.783508 366.820129,528.597351 
	C363.662811,524.293091 363.560028,519.592285 365.961578,514.956177 
	C368.714264,509.642212 373.497559,508.378174 379.454132,509.072144 
M378.164154,513.842285 
	C373.938385,513.268921 371.373566,514.768616 370.643616,519.263611 
	C374.920410,519.263611 378.544830,519.263611 383.831696,519.263611 
	C381.492462,516.771301 380.229950,515.426208 378.164154,513.842285 
z"/>
<path fill="#646B6F" opacity="1.000000" stroke="none" 
	d="
M443.171387,513.996216 
	C444.059753,516.811829 444.754425,519.295227 445.665436,522.552124 
	C439.263794,522.552124 433.715179,522.552124 428.093170,522.552124 
	C428.838928,527.934875 433.196228,529.731628 437.481903,527.223694 
	C439.328705,526.142944 441.542877,525.689941 444.408051,524.656860 
	C442.747253,531.123291 439.288940,533.488953 433.406769,533.443665 
	C427.527649,533.398438 422.642120,529.652283 421.308105,524.166626 
	C419.951660,518.588806 422.517792,512.671875 427.390594,510.141724 
	C432.789551,507.338440 438.540192,508.637909 443.171387,513.996216 
M433.491394,513.682800 
	C429.870422,513.793884 427.798615,515.557678 427.165924,519.308105 
	C431.320099,519.308105 435.084869,519.308105 438.849640,519.308105 
	C439.090057,518.819763 439.330475,518.331360 439.570892,517.843018 
	C437.816467,516.485291 436.062012,515.127625 433.491394,513.682800 
z"/>
<path fill="#5F666A" opacity="1.000000" stroke="none" 
	d="
M275.358154,509.133118 
	C279.115387,508.529816 280.255981,509.999420 280.005310,513.245178 
	C279.788696,516.049866 279.922577,518.885925 279.981720,521.706421 
	C280.040466,524.505981 280.469055,527.404480 284.046722,527.368896 
	C287.526520,527.334351 288.810852,524.760559 288.866852,521.589722 
	C288.936615,517.643066 288.883606,513.694275 288.883606,509.424927 
	C291.146515,509.424927 292.876251,509.424927 294.990295,509.424927 
	C294.990295,517.071899 294.990295,524.606140 294.990295,533.111450 
	C292.410156,532.506531 290.144897,531.975464 287.058197,531.251831 
	C279.062378,535.475159 273.639862,532.301453 273.671600,522.014893 
	C273.684814,517.731506 274.485260,513.450623 275.358154,509.133118 
z"/>
<path fill="#636A6E" opacity="1.000000" stroke="none" 
	d="
M465.949036,516.571899 
	C463.237976,515.627991 460.953186,514.344604 458.508392,513.846558 
	C457.662262,513.674194 456.418762,515.452454 455.356812,516.339661 
	C456.216156,517.226746 456.920471,518.534973 457.964874,518.919373 
	C460.761169,519.948669 463.787872,520.360474 466.567871,521.423401 
	C470.940918,523.095520 471.504913,526.706787 468.154968,530.177917 
	C462.722687,535.806824 451.911804,533.932190 448.295166,526.495483 
	C450.673035,524.937683 452.859772,524.314514 455.157654,526.787354 
	C455.788452,527.466187 456.856659,528.158081 457.701202,528.130859 
	C459.434204,528.075073 461.195160,527.665100 462.844482,527.105713 
	C463.247559,526.968994 463.603943,525.152100 463.403809,525.026123 
	C461.962616,524.119080 460.427856,523.272339 458.810272,522.765320 
	C457.747498,522.432190 456.387573,523.001831 455.354065,522.629883 
	C453.339233,521.904846 450.166504,521.141785 449.810242,519.782166 
	C449.185120,517.396362 449.498840,513.967285 450.884003,512.013672 
	C454.014526,507.598511 464.031860,507.664459 467.639648,511.727295 
	C469.403748,513.713989 471.145660,516.158020 465.949036,516.571899 
z"/>
<path fill="#646B6F" opacity="1.000000" stroke="none" 
	d="
M319.575897,514.246948 
	C317.803223,514.973511 315.936127,515.509583 314.039215,515.653931 
	C313.445862,515.699097 312.706085,514.181641 312.147430,514.254456 
	C310.389008,514.483704 308.684814,515.128662 306.959625,515.612671 
	C307.850372,516.792358 308.498749,518.475342 309.682953,519.045654 
	C312.047821,520.184509 314.790039,520.514709 317.225220,521.538452 
	C321.299530,523.251282 321.965454,526.242737 319.047516,529.645203 
	C316.033020,533.160278 312.003113,533.709290 307.658569,533.038940 
	C303.700867,532.428345 300.966339,530.460144 299.422516,524.715027 
	C302.600403,525.699585 304.774872,526.415527 306.975281,527.040405 
	C308.496887,527.472534 310.070435,528.095337 311.589294,528.017639 
	C312.444794,527.973755 313.991425,526.552063 313.893066,525.980530 
	C313.711731,524.926636 312.726471,523.560974 311.751465,523.198303 
	C310.259399,522.643250 308.480865,522.641357 306.843964,522.739502 
	C303.789429,522.922668 300.922089,521.899902 300.918518,518.865967 
	C300.915283,516.106018 301.949493,512.400696 303.907288,510.770416 
	C308.647461,506.823334 315.693359,508.633636 319.575897,514.246948 
z"/>
<path fill="#5E6469" opacity="1.000000" stroke="none" 
	d="
M261.100281,505.364044 
	C260.446655,499.427246 263.902008,500.624542 267.458771,501.037262 
	C267.458771,510.716736 267.471710,520.169800 267.439056,529.622620 
	C267.435730,530.580688 267.157776,531.537903 266.982147,532.655151 
	C265.183044,532.655151 263.555389,532.655151 261.100006,532.655151 
	C261.100006,523.642090 261.100006,514.730103 261.100281,505.364044 
z"/>
<path fill="#5E6469" opacity="1.000000" stroke="none" 
	d="
M405.451019,514.473633 
	C400.562897,514.420776 398.809174,516.805237 398.933350,521.084717 
	C399.038910,524.723206 398.955139,528.367188 398.955139,532.540710 
	C396.917938,532.659485 395.193085,532.760010 393.027557,532.886230 
	C393.027557,524.892395 393.027557,517.215027 393.027557,509.939209 
	C397.709656,509.939209 402.218689,509.939209 407.676453,509.939209 
	C407.173279,511.182312 406.512360,512.815186 405.451019,514.473633 
z"/>
<path fill="#51585D" opacity="1.000000" stroke="none" 
	d="
M411.960632,516.117310 
	C411.960663,513.684082 411.960663,511.733795 411.960663,509.448090 
	C414.021088,509.322510 415.603790,509.226074 417.590149,509.105011 
	C417.590149,516.939880 417.590149,524.472412 417.590149,532.401245 
	C415.987366,532.401245 414.293762,532.401245 411.960632,532.401245 
	C411.960632,527.094604 411.960632,521.847412 411.960632,516.117310 
z"/>
<path fill="#646B6F" opacity="1.000000" stroke="none" 
	d="
M412.513245,504.578033 
	C412.639832,502.661438 412.752869,500.846222 413.555267,499.418396 
	C413.806519,498.971344 416.475983,499.110291 417.037537,499.798157 
	C417.811798,500.746582 418.166107,503.475708 417.773438,503.682526 
	C416.309265,504.453857 414.466553,504.506622 412.513245,504.578033 
z"/>
<path fill="#FDFAFA" opacity="1.000000" stroke="none" 
	d="
M243.507599,406.064819 
	C247.529678,405.562103 251.153931,404.830292 254.778961,404.826355 
	C319.056610,404.756958 383.334351,404.792908 447.612091,404.755035 
	C455.632477,404.750305 462.870392,406.897980 468.420624,412.758972 
	C475.621857,420.363342 478.534790,429.381348 475.194824,439.705841 
	C470.683197,453.651886 461.671631,460.112305 446.983856,460.114777 
	C382.373077,460.125702 317.762238,460.075684 253.151566,460.144592 
	C232.675873,460.166412 221.755295,443.372986 225.064575,426.231567 
	C226.941772,416.508026 233.230042,409.385406 243.507599,406.064819 
M394.291931,418.274780 
	C394.183014,427.467743 394.069641,436.660706 393.998810,445.853943 
	C393.997437,446.029053 394.498718,446.208008 395.362915,446.595612 
	C396.197968,446.544067 397.032990,446.492523 398.631226,446.576996 
	C399.000183,446.088440 399.686066,445.603027 399.690918,445.110870 
	C399.772339,436.871216 399.815704,428.630127 399.703552,420.391571 
	C399.693512,419.652649 398.553925,418.929108 397.228851,418.038696 
	C396.506775,418.089600 395.784668,418.140503 394.291931,418.274780 
M304.711884,446.673706 
	C307.950195,447.251068 309.332397,446.028137 308.982971,442.641602 
	C308.748016,440.364685 308.938263,438.043884 308.938263,434.453003 
	C311.202576,435.566895 313.010071,435.936554 313.952454,437.042999 
	C315.321381,438.650299 316.236053,440.720703 317.040558,442.716095 
	C318.547882,446.454803 320.927521,447.758759 325.162750,445.967377 
	C323.185730,442.191254 321.286743,438.564148 319.329376,434.825500 
	C320.223969,433.995941 320.977844,433.374451 321.641998,432.668518 
	C326.351746,427.662750 325.075653,420.638733 318.523529,418.887634 
	C313.746460,417.610901 308.506836,418.064880 302.608185,417.692749 
	C303.067841,428.007782 303.477966,437.211121 304.711884,446.673706 
M454.608154,425.178284 
	C450.451080,418.971161 438.869415,415.218933 432.558746,418.155457 
	C431.874390,418.473938 431.179871,419.632141 431.170959,420.408630 
	C431.072662,428.983307 431.109161,437.559540 431.109161,446.877441 
	C436.262543,446.646820 441.013611,447.176300 445.354279,446.080322 
	C453.547791,444.011627 456.543182,436.995178 454.608154,425.178284 
M419.296478,422.743317 
	C420.127350,422.743103 421.067841,422.993408 421.765289,422.688263 
	C423.045746,422.127960 424.182953,421.240326 425.379883,420.489197 
	C424.108978,419.630219 422.936890,418.333710 421.543091,418.019012 
	C419.645660,417.590607 417.578979,417.911530 415.584869,417.911530 
	C406.118683,417.911469 406.118652,417.911499 406.118652,427.320190 
	C406.118652,433.712585 406.118683,440.105011 406.118683,446.750885 
	C412.030762,446.750885 417.011047,446.904297 421.968933,446.638947 
	C423.152924,446.575562 424.262207,445.115601 425.405853,444.298004 
	C424.301636,443.463348 423.259644,442.031616 422.081268,441.908875 
	C418.873077,441.574738 415.607239,441.794067 412.387329,441.794067 
	C412.387329,438.693298 412.387329,436.449036 412.387329,433.698242 
	C415.510895,433.698242 418.323700,433.911377 421.074829,433.592377 
	C422.161682,433.466370 423.111176,432.155396 424.123230,431.384003 
	C423.097565,430.430542 422.164459,428.812744 421.028015,428.654419 
	C418.183777,428.258209 415.247345,428.523621 412.310425,428.523621 
	C412.310425,426.168762 412.310425,424.749023 412.310425,422.743164 
	C414.499146,422.743164 416.442291,422.743164 419.296478,422.743317 
M283.621307,446.752258 
	C286.279510,446.752228 288.978394,447.029785 291.580750,446.648468 
	C293.155365,446.417725 294.580353,445.165710 296.072601,444.372559 
	C294.655670,443.512665 293.312378,442.114105 291.806030,441.908051 
	C288.913452,441.512360 285.928436,441.792847 282.881927,441.792847 
	C282.881927,438.816376 282.881927,436.461945 282.881927,433.700012 
	C286.136261,433.700012 288.970886,433.952393 291.721252,433.580872 
	C292.888763,433.423187 293.879639,431.957275 294.950806,431.085907 
	C293.833435,430.229767 292.828491,428.972992 291.569977,428.619843 
	C290.029144,428.187469 288.269928,428.419220 286.615723,428.526764 
	C282.024658,428.825134 281.813812,426.504425 283.126129,422.725067 
	C286.742279,422.725067 290.221222,422.883270 293.666504,422.612854 
	C294.518463,422.546021 295.646057,421.191101 295.905548,420.228455 
	C296.054443,419.676086 294.734436,418.074219 294.039215,418.051270 
	C288.477081,417.867798 282.906250,417.948761 277.367310,417.948761 
	C277.367310,427.961700 277.367310,437.150665 277.367310,446.752045 
	C279.400116,446.752045 281.035461,446.752045 283.621307,446.752258 
M260.260559,422.885590 
	C261.573730,423.358521 262.895081,423.810028 264.198059,424.309418 
	C266.117218,425.044891 268.023224,425.814514 269.934814,426.569580 
	C266.932648,418.847595 260.093292,415.928467 253.782639,418.190216 
	C246.350815,420.853790 243.146866,426.606323 244.610641,434.657990 
	C246.043121,442.537537 251.306290,447.188995 258.534058,446.963257 
	C264.827759,446.766693 269.110596,442.995697 270.188354,435.144379 
	C267.463531,436.676849 265.329712,437.379791 263.894684,438.792542 
	C261.300079,441.346832 258.681152,443.056152 255.099091,441.189270 
	C251.010422,439.058319 249.317688,433.038940 250.501038,427.466644 
	C251.656738,422.024536 255.542358,422.688110 260.260559,422.885590 
M370.586884,446.704529 
	C373.923157,447.282745 375.067261,445.829926 374.791138,442.560089 
	C374.558380,439.803802 374.743225,437.012177 374.743225,433.746155 
	C379.114502,433.746155 382.868896,433.746155 386.925842,433.746155 
	C386.925842,431.846771 386.925842,430.446930 386.925842,428.381958 
	C382.854095,428.381958 378.972839,428.381958 374.745026,428.381958 
	C374.863739,426.144348 374.946136,424.591309 375.044342,422.740204 
	C378.978546,422.740204 382.469330,422.925720 385.917816,422.625366 
	C386.930939,422.537140 387.824036,421.071289 388.772156,420.236816 
	C387.930542,419.465698 387.111938,418.058136 386.243622,418.026825 
	C380.644012,417.824768 375.033508,417.923492 368.830048,417.923492 
	C368.830048,423.606445 368.714172,428.716400 368.865967,433.818390 
	C368.991913,438.050934 369.433105,442.274109 370.586884,446.704529 
M342.738159,445.830475 
	C342.738159,438.233612 342.738159,430.636780 342.738159,422.989807 
	C346.405182,422.803650 349.173737,422.663086 353.440338,422.446472 
	C352.102448,420.373871 351.362885,418.139282 350.523865,418.101318 
	C344.042511,417.807953 337.540161,417.870178 331.049713,418.035645 
	C330.313446,418.054413 328.924072,419.544800 329.042847,420.090515 
	C329.256866,421.073761 330.264343,422.420563 331.153534,422.608765 
	C332.991852,422.997955 334.970093,422.726074 337.352020,422.726074 
	C337.352020,431.054657 337.352020,438.644653 337.352020,446.707703 
	C339.279724,446.608002 340.713684,446.533844 342.738159,445.830475 
M363.209106,423.651733 
	C363.131561,421.879150 363.054016,420.106567 362.970856,418.204926 
	C360.997223,418.204926 359.552399,418.204926 357.797607,418.204926 
	C357.797607,427.676788 357.797607,436.921112 357.797607,446.343201 
	C359.630371,446.343201 361.183777,446.343201 363.209259,446.343201 
	C363.209259,438.876770 363.209259,431.746002 363.209106,423.651733 
z"/>
<path fill="#F1F1F1" opacity="1.000000" stroke="none" 
	d="
M317.137512,319.036621 
	C319.926361,309.944489 322.621735,301.240265 325.657471,291.437103 
	C329.048553,302.338654 332.168030,312.367065 335.393890,322.737366 
	C328.773438,322.737366 322.828979,322.737366 316.521515,322.737366 
	C316.710480,321.539398 316.877258,320.481934 317.137512,319.036621 
z"/>
<path fill="#FCF6F7" opacity="1.000000" stroke="none" 
	d="
M496.507782,194.459351 
	C489.600250,194.850403 482.807404,194.850403 474.865631,194.850403 
	C478.356506,187.468842 481.599884,180.610565 484.843292,173.752274 
	C485.613647,173.734848 486.384033,173.717438 487.154419,173.700012 
	C490.310425,180.489426 493.466461,187.278854 496.507782,194.459351 
z"/>
<path fill="#FDF8F9" opacity="1.000000" stroke="none" 
	d="
M259.534241,208.802322 
	C253.350342,204.761032 251.310410,198.579086 253.909760,192.733475 
	C256.768463,186.304581 262.946045,183.625412 270.488098,185.543503 
	C277.623260,187.358154 281.592651,192.180298 281.184174,198.537430 
	C280.835358,203.966309 276.298706,208.985168 270.179993,209.717911 
	C266.833801,210.118637 263.335510,209.249176 259.534241,208.802322 
z"/>
<path fill="#F3F4F4" opacity="1.000000" stroke="none" 
	d="
M244.571976,505.885101 
	C249.631287,506.547852 251.269958,509.447266 250.384506,513.697144 
	C249.498230,517.950989 246.070908,518.990051 238.469193,517.574890 
	C238.469193,513.893494 238.469193,510.164185 238.469193,505.861176 
	C240.570984,505.861176 242.354828,505.861176 244.571976,505.885101 
z"/>
<path fill="#E5E7E7" opacity="1.000000" stroke="none" 
	d="
M378.565796,513.961670 
	C380.229950,515.426208 381.492462,516.771301 383.831696,519.263611 
	C378.544830,519.263611 374.920410,519.263611 370.643616,519.263611 
	C371.373566,514.768616 373.938385,513.268921 378.565796,513.961670 
z"/>
<path fill="#E5E7E7" opacity="1.000000" stroke="none" 
	d="
M433.899475,513.726318 
	C436.062012,515.127625 437.816467,516.485291 439.570892,517.843018 
	C439.330475,518.331360 439.090057,518.819763 438.849640,519.308105 
	C435.084869,519.308105 431.320099,519.308105 427.165924,519.308105 
	C427.798615,515.557678 429.870422,513.793884 433.899475,513.726318 
z"/>
<path fill="#BF3C45" opacity="1.000000" stroke="none" 
	d="
M304.299988,446.544067 
	C303.477966,437.211121 303.067841,428.007782 302.608185,417.692749 
	C308.506836,418.064880 313.746460,417.610901 318.523529,418.887634 
	C325.075653,420.638733 326.351746,427.662750 321.641998,432.668518 
	C320.977844,433.374451 320.223969,433.995941 319.329376,434.825500 
	C321.286743,438.564148 323.185730,442.191254 325.162750,445.967377 
	C320.927521,447.758759 318.547882,446.454803 317.040558,442.716095 
	C316.236053,440.720703 315.321381,438.650299 313.952454,437.042999 
	C313.010071,435.936554 311.202576,435.566895 308.938263,434.453003 
	C308.938263,438.043884 308.748016,440.364685 308.982971,442.641602 
	C309.332397,446.028137 307.950195,447.251068 304.299988,446.544067 
M315.971710,422.883606 
	C313.736206,422.883606 311.500702,422.883606 309.315247,422.883606 
	C309.315247,425.814911 309.315247,428.186371 309.315247,432.143768 
	C312.854584,430.410767 315.644592,429.380524 317.928650,427.673401 
	C318.453339,427.281311 317.239624,424.563202 315.971710,422.883606 
z"/>
<path fill="#BF3C45" opacity="1.000000" stroke="none" 
	d="
M454.741943,425.551392 
	C456.543182,436.995178 453.547791,444.011627 445.354279,446.080322 
	C441.013611,447.176300 436.262543,446.646820 431.109161,446.877441 
	C431.109161,437.559540 431.072662,428.983307 431.170959,420.408630 
	C431.179871,419.632141 431.874390,418.473938 432.558746,418.155457 
	C438.869415,415.218933 450.451080,418.971161 454.741943,425.551392 
M436.966125,425.715179 
	C436.966125,430.951416 436.966125,436.187622 436.966125,441.227814 
	C447.254822,444.072021 451.542969,435.303375 449.339600,427.038574 
	C448.058655,422.233643 440.693604,420.921417 436.966125,425.715179 
z"/>
<path fill="#C1414A" opacity="1.000000" stroke="none" 
	d="
M418.840942,422.743225 
	C416.442291,422.743164 414.499146,422.743164 412.310425,422.743164 
	C412.310425,424.749023 412.310425,426.168762 412.310425,428.523621 
	C415.247345,428.523621 418.183777,428.258209 421.028015,428.654419 
	C422.164459,428.812744 423.097565,430.430542 424.123230,431.383972 
	C423.111176,432.155396 422.161682,433.466370 421.074829,433.592377 
	C418.323700,433.911377 415.510895,433.698242 412.387329,433.698242 
	C412.387329,436.449036 412.387329,438.693298 412.387329,441.794067 
	C415.607239,441.794067 418.873077,441.574738 422.081268,441.908875 
	C423.259644,442.031616 424.301636,443.463348 425.405853,444.297974 
	C424.262207,445.115601 423.152924,446.575562 421.968933,446.638947 
	C417.011047,446.904297 412.030762,446.750885 406.118683,446.750885 
	C406.118683,440.105011 406.118652,433.712585 406.118652,427.320190 
	C406.118652,417.911499 406.118683,417.911469 415.584869,417.911530 
	C417.578979,417.911530 419.645660,417.590607 421.543091,418.019012 
	C422.936890,418.333710 424.108978,419.630219 425.379883,420.489197 
	C424.182953,421.240326 423.045746,422.127960 421.765289,422.688263 
	C421.067841,422.993408 420.127350,422.743103 418.840942,422.743225 
z"/>
<path fill="#C1414A" opacity="1.000000" stroke="none" 
	d="
M283.146057,446.752136 
	C281.035461,446.752045 279.400116,446.752045 277.367310,446.752045 
	C277.367310,437.150665 277.367310,427.961700 277.367310,417.948761 
	C282.906250,417.948761 288.477081,417.867798 294.039215,418.051270 
	C294.734436,418.074219 296.054443,419.676086 295.905548,420.228455 
	C295.646057,421.191101 294.518463,422.546021 293.666504,422.612854 
	C290.221222,422.883270 286.742279,422.725067 283.126129,422.725067 
	C281.813812,426.504425 282.024658,428.825134 286.615723,428.526764 
	C288.269928,428.419220 290.029144,428.187469 291.569977,428.619843 
	C292.828491,428.972992 293.833435,430.229767 294.950806,431.085907 
	C293.879639,431.957275 292.888763,433.423187 291.721252,433.580872 
	C288.970886,433.952393 286.136261,433.700012 282.881927,433.700012 
	C282.881927,436.461945 282.881927,438.816376 282.881927,441.792847 
	C285.928436,441.792847 288.913452,441.512360 291.806030,441.908051 
	C293.312378,442.114105 294.655670,443.512665 296.072601,444.372559 
	C294.580353,445.165710 293.155365,446.417725 291.580750,446.648468 
	C288.978394,447.029785 286.279510,446.752228 283.146057,446.752136 
z"/>
<path fill="#BF3C45" opacity="1.000000" stroke="none" 
	d="
M259.818176,422.869659 
	C255.542358,422.688110 251.656738,422.024536 250.501038,427.466644 
	C249.317688,433.038940 251.010422,439.058319 255.099091,441.189270 
	C258.681152,443.056152 261.300079,441.346832 263.894684,438.792542 
	C265.329712,437.379791 267.463531,436.676849 270.188354,435.144379 
	C269.110596,442.995697 264.827759,446.766693 258.534058,446.963257 
	C251.306290,447.188995 246.043121,442.537537 244.610641,434.657990 
	C243.146866,426.606323 246.350815,420.853790 253.782639,418.190216 
	C260.093292,415.928467 266.932648,418.847595 269.934814,426.569580 
	C268.023224,425.814514 266.117218,425.044891 264.198059,424.309418 
	C262.895081,423.810028 261.573730,423.358521 259.818176,422.869659 
z"/>
<path fill="#C1414A" opacity="1.000000" stroke="none" 
	d="
M370.160767,446.602966 
	C369.433105,442.274109 368.991913,438.050934 368.865967,433.818390 
	C368.714172,428.716400 368.830048,423.606445 368.830048,417.923492 
	C375.033508,417.923492 380.644012,417.824768 386.243622,418.026825 
	C387.111938,418.058136 387.930542,419.465698 388.772156,420.236816 
	C387.824036,421.071289 386.930939,422.537140 385.917816,422.625366 
	C382.469330,422.925720 378.978546,422.740204 375.044342,422.740204 
	C374.946136,424.591309 374.863739,426.144348 374.745026,428.381958 
	C378.972839,428.381958 382.854095,428.381958 386.925842,428.381958 
	C386.925842,430.446930 386.925842,431.846771 386.925842,433.746155 
	C382.868896,433.746155 379.114502,433.746155 374.743225,433.746155 
	C374.743225,437.012177 374.558380,439.803802 374.791138,442.560089 
	C375.067261,445.829926 373.923157,447.282745 370.160767,446.602966 
z"/>
<path fill="#C1434C" opacity="1.000000" stroke="none" 
	d="
M342.442871,446.145081 
	C340.713684,446.533844 339.279724,446.608002 337.352020,446.707703 
	C337.352020,438.644653 337.352020,431.054657 337.352020,422.726074 
	C334.970093,422.726074 332.991852,422.997955 331.153534,422.608765 
	C330.264343,422.420563 329.256866,421.073761 329.042847,420.090515 
	C328.924072,419.544800 330.313446,418.054413 331.049713,418.035645 
	C337.540161,417.870178 344.042511,417.807953 350.523865,418.101318 
	C351.362885,418.139282 352.102448,420.373871 353.440338,422.446472 
	C349.173737,422.663086 346.405182,422.803650 342.738159,422.989807 
	C342.738159,430.636780 342.738159,438.233612 342.442871,446.145081 
z"/>
<path fill="#BC343D" opacity="1.000000" stroke="none" 
	d="
M363.209167,424.133484 
	C363.209259,431.746002 363.209259,438.876770 363.209259,446.343201 
	C361.183777,446.343201 359.630371,446.343201 357.797607,446.343201 
	C357.797607,436.921112 357.797607,427.676788 357.797607,418.204926 
	C359.552399,418.204926 360.997223,418.204926 362.970856,418.204926 
	C363.054016,420.106567 363.131561,421.879150 363.209167,424.133484 
z"/>
<path fill="#BA2C35" opacity="1.000000" stroke="none" 
	d="
M397.868042,446.440979 
	C397.032990,446.492523 396.197968,446.544067 395.107391,445.994263 
	C394.922119,436.325714 394.992371,427.258575 395.062622,418.191406 
	C395.784668,418.140503 396.506775,418.089600 397.607574,418.572815 
	C397.946869,428.218292 397.907471,437.329651 397.868042,446.440979 
z"/>
<path fill="#C85963" opacity="1.000000" stroke="none" 
	d="
M398.249634,446.508972 
	C397.907471,437.329651 397.946869,428.218292 397.962585,418.652710 
	C398.553925,418.929108 399.693512,419.652649 399.703552,420.391571 
	C399.815704,428.630127 399.772339,436.871216 399.690918,445.110870 
	C399.686066,445.603027 399.000183,446.088440 398.249634,446.508972 
z"/>
<path fill="#C85963" opacity="1.000000" stroke="none" 
	d="
M394.677277,418.233093 
	C394.992371,427.258575 394.922119,436.325714 394.808655,445.889038 
	C394.498718,446.208008 393.997437,446.029053 393.998810,445.853943 
	C394.069641,436.660706 394.183014,427.467743 394.677277,418.233093 
z"/>
<path fill="#FBF5F5" opacity="1.000000" stroke="none" 
	d="
M316.398804,422.899597 
	C317.239624,424.563202 318.453339,427.281311 317.928650,427.673401 
	C315.644592,429.380524 312.854584,430.410767 309.315247,432.143768 
	C309.315247,428.186371 309.315247,425.814911 309.315247,422.883606 
	C311.500702,422.883606 313.736206,422.883606 316.398804,422.899597 
z"/>
<path fill="#FBF5F5" opacity="1.000000" stroke="none" 
	d="
M436.977051,425.239075 
	C440.693604,420.921417 448.058655,422.233643 449.339600,427.038574 
	C451.542969,435.303375 447.254822,444.072021 436.966125,441.227814 
	C436.966125,436.187622 436.966125,430.951416 436.977051,425.239075 
z"/>
</svg>